<svg width="168" height="268" viewBox="0 0 168 268" fill="none" xmlns="http://www.w3.org/2000/svg">
<path d="M70 113C118.049 113 157 90.1665 157 62C157 33.8335 118.049 11 70 11" stroke="black" stroke-width="21" stroke-linecap="round"/>
<path d="M69 185C117.601 185 157 162.167 157 134C157 105.833 117.601 83 69 83" stroke="black" stroke-width="21" stroke-linecap="round"/>
<path d="M69 257C117.601 257 157 234.167 157 206C157 177.833 117.601 155 69 155" stroke="black" stroke-width="21" stroke-linecap="round"/>
<path d="M70 185C37.4152 185 11 178.284 11 170C11 161.716 37.4152 155 70 155" stroke="black" stroke-width="21" stroke-linecap="round"/>
<path d="M70 257C37.4152 257 11 250.284 11 242C11 233.716 37.4152 227 70 227" stroke="black" stroke-width="21" stroke-linecap="round"/>
<path d="M70 113C37.4152 113 11 106.284 11 98C11 89.7157 37.4152 83 70 83" stroke="black" stroke-width="21" stroke-linecap="round"/>
<path d="M70 41C37.4152 41 11 34.2843 11 26C11 17.7157 37.4152 11 70 11" stroke="black" stroke-width="21" stroke-linecap="round"/>
</svg>
